<svg fill="none" height="28" viewBox="0 0 172 28" width="172" xmlns="http://www.w3.org/2000/svg"><g fill="#efa93f"><path d="m13.0554 2.71739c.3113-.89556 1.5779-.89556 1.8892 0l2.1185 6.09483c.1374.39507.506.66294.9242.67146l6.4512.13147c.9479.01932 1.3393 1.22385.5838 1.79665l-5.1419 3.8983c-.3333.2527-.4741.6861-.353 1.0864l1.8685 6.1761c.2746.9075-.7501 1.652-1.5283 1.1104l-5.2964-3.6855c-.3433-.2389-.7991-.2389-1.1424 0l-5.29639 3.6855c-.77824.5416-1.80288-.2029-1.52833-1.1104l1.8685-6.1761c.12112-.4003-.01971-.8337-.35301-1.0864l-5.14186-3.8983c-.75553-.5728-.36415-1.77733.58377-1.79665l6.45122-.13147c.4182-.00852.7868-.27639.9242-.67146z"></path><path d="m49.0554 2.71739c.3113-.89556 1.5779-.89556 1.8892 0l2.1185 6.09483c.1374.39507.506.66294.9242.67146l6.4512.13147c.9479.01932 1.3393 1.22385.5838 1.79665l-5.1419 3.8983c-.3333.2527-.4741.6861-.353 1.0864l1.8685 6.1761c.2746.9075-.7501 1.652-1.5283 1.1104l-5.2964-3.6855c-.3433-.2389-.7991-.2389-1.1424 0l-5.2964 3.6855c-.7782.5416-1.8029-.2029-1.5283-1.1104l1.8685-6.1761c.1211-.4003-.0197-.8337-.353-1.0864l-5.1419-3.8983c-.7555-.5728-.3641-1.77733.5838-1.79665l6.4512-.13147c.4182-.00852.7868-.27639.9242-.67146z"></path><path d="m85.0554 2.71739c.3113-.89556 1.5779-.89556 1.8892 0l2.1185 6.09483c.1374.39507.506.66294.9242.67146l6.4512.13147c.9479.01932 1.3393 1.22385.5838 1.79665l-5.1419 3.8983c-.3333.2527-.4741.6861-.353 1.0864l1.8685 6.1761c.2746.9075-.7501 1.652-1.5283 1.1104l-5.2964-3.6855c-.3433-.2389-.7991-.2389-1.1424 0l-5.2964 3.6855c-.7782.5416-1.8029-.2029-1.5283-1.1104l1.8685-6.1761c.1211-.4003-.0197-.8337-.353-1.0864l-5.1419-3.8983c-.7555-.5728-.3641-1.77733.5838-1.79665l6.4512-.13147c.4182-.00852.7868-.27639.9242-.67146z"></path><path d="m121.055 2.71739c.312-.89556 1.578-.89556 1.89 0l2.118 6.09483c.137.39507.506.66294.924.67146l6.452.13147c.947.01932 1.339 1.22385.583 1.79665l-5.142 3.8983c-.333.2527-.474.6861-.353 1.0864l1.869 6.1761c.274.9075-.75 1.652-1.528 1.1104l-5.297-3.6855c-.343-.2389-.799-.2389-1.142 0l-5.297 3.6855c-.778.5416-1.802-.2029-1.528-1.1104l1.869-6.1761c.121-.4003-.02-.8337-.353-1.0864l-5.142-3.8983c-.756-.5728-.364-1.77733.583-1.79665l6.452-.13147c.418-.00852.787-.27639.924-.67146z"></path><path d="m157.055 2.71739c.312-.89556 1.578-.89556 1.89 0l2.118 6.09483c.137.39507.506.66294.924.67146l6.452.13147c.947.01932 1.339 1.22385.583 1.79665l-5.142 3.8983c-.333.2527-.474.6861-.353 1.0864l1.869 6.1761c.274.9075-.75 1.652-1.528 1.1104l-5.297-3.6855c-.343-.2389-.799-.2389-1.142 0l-5.297 3.6855c-.778.5416-1.802-.2029-1.528-1.1104l1.869-6.1761c.121-.4003-.02-.8337-.353-1.0864l-5.142-3.8983c-.756-.5728-.364-1.77733.583-1.79665l6.452-.13147c.418-.00852.787-.27639.924-.67146z"></path></g></svg>