<svg fill="none" height="49" viewBox="0 0 49 49" width="49" xmlns="http://www.w3.org/2000/svg" xmlns:xlink="http://www.w3.org/1999/xlink"><mask id="a" height="49" maskUnits="userSpaceOnUse" width="49" x="0" y="0"><path d="m44.8662 36.7858c-6.7181 11.1808-21.228 14.7985-32.4088 8.0804-11.18078-6.7181-14.79851-21.228-8.08042-32.4088 6.71812-11.18078 21.22802-14.79851 32.40882-8.08042 11.1808 6.71812 14.7985 21.22802 8.0804 32.40882z" fill="#fff" stroke="#fff" stroke-linecap="round" stroke-linejoin="round" stroke-width="1.5"/></mask><path d="m44.8662 36.7858c-6.7181 11.1808-21.228 14.7985-32.4088 8.0804-11.18078-6.7181-14.79851-21.228-8.08042-32.4088 6.71812-11.18078 21.22802-14.79851 32.40882-8.08042 11.1808 6.71812 14.7985 21.22802 8.0804 32.40882z" stroke="#000ee6" stroke-linecap="round" stroke-linejoin="round" stroke-width="1.5"/><g mask="url(#a)"><path d="m14.3666 27.669 5.7018 5.1592 9.5011-8.5969 8.1818-7.4031" stroke="#000ee6" stroke-linecap="round" stroke-linejoin="round" stroke-width="1.5"/></g></svg>