<?xml version="1.0" encoding="UTF-8" standalone="no"?><svg version="1.2" baseProfile="tiny-ps" xmlns="http://www.w3.org/2000/svg" viewBox="0 0 1715 575" width="149" height="50">
	<title>reservix-logo-E-svg</title>
	<style>
		tspan { white-space:pre }
		.shp0 { fill: #272a32 } 
	</style>
	<g id="Layer">
		<path id="Layer" fill-rule="evenodd" class="shp0" d="M1459.57 94.18L1663.69 374.63L1561.1 374.63L1376.67 118.74L1376.67 374.63L1292.8 374.63L1292.8 126.54L1203.42 374.63L1123.12 374.63L1052.74 178.45C1018.68 180.54 995.48 190.47 995.48 229.59L995.48 374.63L911.62 374.63L911.62 291.64C898.09 320.52 879.35 343.09 856.92 358.39C833.59 375.05 805.82 383.66 777.03 383.66C719.12 383.66 667.53 349.81 643.24 299.73C637.19 352.2 587.85 384.12 529.64 384.12C489.37 384.12 429.55 366.68 417.06 301.83C404.11 325.87 387.37 344.96 367.64 358.39C344.4 375.05 316.65 383.66 287.87 383.66C207.45 383.66 139.28 318.48 139.28 235.15C139.28 215.57 143.17 196.38 150.24 178.61C112.71 179.92 86.5 188.56 86.5 230.09L86.5 374.63L2.62 374.63L2.62 94.18L81.45 94.18L81.45 133.57L82.47 133.57C89.52 119.93 104.17 94.18 152.71 94.18L188.89 94.18L188.89 122.51C214.27 99.3 247.83 84.53 286.28 84.53C346.91 84.53 395.97 118.57 419.49 168.84C424.16 117.82 472.44 84.53 527.64 84.53C564.49 84.53 628.16 99.24 635.25 172.98L552.92 172.98C552.37 166.91 551.36 151.75 526.55 151.75C508.94 151.75 502.87 162.87 502.87 170.46C502.87 185.65 523.55 194.18 545.8 200.72C577.3 209.51 610.14 218.72 628.64 241.62C628.6 239.48 628.53 237.36 628.53 235.15C628.53 156.81 690.15 84.53 775.47 84.53C838.8 84.53 889.51 121.73 911.62 175.66L911.62 94.18L990.45 94.18L990.45 133.15L991.42 133.15C998.53 119.48 1013.16 94.18 1061.64 94.18L1109.42 94.18L1162.99 269.01L1164.05 269.01L1217.59 94.18L1459.57 94.18ZM712.37 203.27L839.71 203.27C836.17 186.64 819.45 155.3 776.05 155.3C732.61 155.3 715.89 186.64 712.37 203.27ZM559.98 295.23C559.98 273.53 539.24 270.98 485.66 250.29C464.5 243.48 445.42 232.57 433.14 217.25C433.96 223.93 434.4 230.71 434.4 237.64C434.4 248.72 433.33 253.33 432.37 259.93L222.13 259.93C227.22 293.27 255 312.89 287.87 312.89C310.82 312.89 323.96 303.53 334.85 291.11L422.44 291.11L422.4 291.23L498.8 291.23C502.37 316.97 527.16 316.97 530.67 316.97C544.8 316.97 559.98 308.86 559.98 295.23ZM223.21 203.27L350.49 203.27C346.98 186.64 330.23 155.3 286.84 155.3C243.38 155.3 226.67 186.64 223.21 203.27ZM911.62 259.93L711.33 259.93C716.36 293.27 744.19 312.89 777.03 312.89C800.38 312.89 813.72 303.36 824.71 290.69L911.62 290.69L911.62 259.93ZM1376.67 64.08L1292.8 64.08L1292.8 0.38L1376.67 0.38L1376.67 64.08Z" />
		<path id="Layer" class="shp0" d="M1678.19 9.17C1684.75 0.23 1697.26 -1.84 1706.26 4.74C1715.23 11.27 1717.23 23.83 1710.69 32.78C1704.19 41.78 1691.64 43.79 1682.6 37.22C1673.64 30.72 1671.67 18.17 1678.19 9.17Z" />
		<path id="Layer" class="shp0" d="M1339.02 543.06C1332.45 552.03 1319.9 554 1310.87 547.49C1301.93 540.99 1299.96 528.44 1306.44 519.44C1312.97 510.44 1325.56 508.47 1334.52 515.01C1343.49 521.55 1345.49 534.06 1339.02 543.06Z" />
		<path id="Layer" class="shp0" d="M1338.25 475.7C1344.79 466.7 1357.34 464.7 1366.33 471.2C1375.33 477.71 1377.27 490.33 1370.77 499.29C1364.22 508.29 1351.71 510.26 1342.68 503.76C1333.71 497.18 1331.71 484.63 1338.25 475.7Z" />
		<path id="Layer" class="shp0" d="M1434.37 411.75C1427.86 420.75 1415.26 422.72 1406.31 416.22C1397.29 409.64 1395.31 397.09 1401.81 388.16C1408.39 379.13 1420.97 377.16 1429.94 383.7C1438.9 390.17 1440.87 402.82 1434.37 411.75Z" />
		<path id="Layer" class="shp0" d="M1402.58 455.52C1396.01 464.49 1383.49 466.53 1374.48 459.95C1365.53 453.45 1363.53 440.9 1370.03 431.9C1376.53 422.9 1389.12 420.93 1398.12 427.5C1407.12 433.97 1409.09 446.52 1402.58 455.52Z" />
		<path id="Layer" class="shp0" d="M1433.66 344.32C1440.13 335.39 1452.75 333.43 1461.72 339.89C1470.67 346.43 1472.66 358.98 1466.12 367.98C1459.64 377.02 1447.06 378.95 1438.06 372.45C1429.06 365.88 1427.1 353.32 1433.66 344.32Z" />
		<path id="Layer" class="shp0" d="M1497.93 324.21C1491.46 333.18 1478.85 335.15 1469.87 328.68C1460.9 322.14 1458.94 309.58 1465.47 300.64C1471.98 291.64 1484.53 289.63 1493.53 296.15C1502.5 302.64 1504.47 315.25 1497.93 324.21Z" />
		<path id="Layer" class="shp0" d="M1615.28 164.1C1608.74 173.1 1596.19 175.09 1587.25 168.55C1578.26 162.03 1576.22 149.5 1582.76 140.46C1589.3 131.46 1601.83 129.5 1610.85 136.05C1619.83 142.55 1621.8 155.16 1615.28 164.1Z" />
		<path id="Layer" class="shp0" d="M1583.5 207.86C1576.99 216.84 1564.41 218.83 1555.41 212.34C1546.44 205.79 1544.48 193.25 1550.99 184.27C1557.52 175.25 1570.05 173.28 1579.05 179.84C1588.03 186.29 1590 198.94 1583.5 207.86Z" />
		<path id="Layer" class="shp0" d="M1614.54 96.73C1621.08 87.77 1633.67 85.7 1642.65 92.28C1651.63 98.8 1653.6 111.36 1647.08 120.32C1640.55 129.32 1628.01 131.32 1618.97 124.76C1610.04 118.26 1608.04 105.74 1614.54 96.73Z" />
		<path id="Layer" class="shp0" d="M1678.88 76.53C1672.34 85.55 1659.79 87.55 1650.83 81.03C1641.83 74.45 1639.87 61.96 1646.39 52.94C1652.9 43.94 1665.45 41.97 1674.41 48.53C1683.45 55.01 1685.43 67.62 1678.88 76.53Z" />
	</g>
</svg>